<?xml version="1.0" standalone="no"?><!DOCTYPE svg PUBLIC "-//W3C//DTD SVG 1.1//EN" "http://www.w3.org/Graphics/SVG/1.1/DTD/svg11.dtd"><svg t="1604302920211" class="icon" viewBox="0 0 1048 1024" version="1.1" xmlns="http://www.w3.org/2000/svg" p-id="7462" xmlns:xlink="http://www.w3.org/1999/xlink" width="204.6875" height="200"><defs><style type="text/css"></style></defs><path d="M928.25751 523.20847a41.957399 41.957399 0 0 0-40.658717 42.756588l56.043097 348.446211H106.19218l45.453849-348.446211a41.957399 41.957399 0 0 0-40.658718-42.756588A41.957399 41.957399 0 0 0 69.928999 565.965058L24.974642 918.50711a78.020783 78.020783 0 0 0 76.422406 80.518248h846.140886a78.020783 78.020783 0 0 0 76.422406-80.518248l-56.043097-352.542052a41.258109 41.258109 0 0 0-39.659733-42.756588z" fill="#bfbfbf" p-id="7463"></path><path d="M413.580079 700.428532a31.468049 31.468049 0 0 0 30.968557 31.567949h160.836697a30.568962 30.568962 0 0 0 29.969571-31.567949v-399.594279h118.879298a20.778903 20.778903 0 0 0-3.995943-13.286509L534.457348 6.233371a11.588234 11.588234 0 0 0-16.982757-4.095841c-1.997971 0.998986-2.996957 3.096856-3.995942 4.095841L298.696724 287.547744a20.778903 20.778903 0 0 0-3.995943 13.286509h118.879298z" fill="#bfbfbf" p-id="7464"></path></svg>