<?xml version="1.0" standalone="no"?><!DOCTYPE svg PUBLIC "-//W3C//DTD SVG 1.1//EN" "http://www.w3.org/Graphics/SVG/1.1/DTD/svg11.dtd"><svg t="1604302402772" class="icon" viewBox="0 0 1024 1024" version="1.1" xmlns="http://www.w3.org/2000/svg" p-id="6008" xmlns:xlink="http://www.w3.org/1999/xlink" width="200" height="200"><defs><style type="text/css"></style></defs><path d="M869.357 972.416H154.643c-53.284 0-96.143-43.577-96.143-97.11V148.61c0-53.532 42.859-97.109 96.143-97.109h714.714c53.284 0 96.143 43.577 96.143 97.11v726.697c0 53.532-42.859 97.11-96.143 97.11z m0-77c10.47 0 19.143-8.82 19.143-20.11V148.61c0-11.29-8.674-20.109-19.143-20.109H154.643c-10.47 0-19.143 8.82-19.143 20.11v726.697c0 11.29 8.674 20.11 19.143 20.11h714.714z" p-id="6009" fill="#bfbfbf"></path><path d="M501 340.87h230.128c21.263 0 38.5-17.236 38.5-38.5 0-21.262-17.237-38.5-38.5-38.5H501c-21.263 0-38.5 17.238-38.5 38.5 0 21.264 17.237 38.5 38.5 38.5zM501 547.87h230.128c21.263 0 38.5-17.236 38.5-38.5 0-21.262-17.237-38.5-38.5-38.5H501c-21.263 0-38.5 17.238-38.5 38.5 0 21.264 17.237 38.5 38.5 38.5zM501 751.87h230.128c21.263 0 38.5-17.236 38.5-38.5 0-21.262-17.237-38.5-38.5-38.5H501c-21.263 0-38.5 17.238-38.5 38.5 0 21.264 17.237 38.5 38.5 38.5z" p-id="6010" fill="#bfbfbf"></path><path d="M232.33 272.221l98.449 98.448c10.739 10.74 28.151 10.74 38.89 0 10.74-10.739 10.74-28.151 0-38.89l-98.448-98.448c-10.739-10.74-28.151-10.74-38.89 0-10.74 10.739-10.74 28.151 0 38.89z" p-id="6011" fill="#bfbfbf"></path><path d="M330.779 233.33L232.33 331.78c-10.74 10.739-10.74 28.151 0 38.89 10.739 10.74 28.151 10.74 38.89 0l98.448-98.448c10.74-10.739 10.74-28.151 0-38.89-10.739-10.74-28.151-10.74-38.89 0z" p-id="6012" fill="#bfbfbf"></path><path d="M265.005 687.026c-10.055-10.054-27.009-10.568-37.223-0.354-10.055 10.055-10.57 27.01-0.355 37.224l48.19 48.19c10.128 10.128 27.096 10.128 37.224 0l79.419-80.128c10.008-10.008 10.522-26.962 0.307-37.176-10.055-10.055-27.009-10.57-37.223-0.355l-0.355 0.355-60.963 61.265-29.02-29.02z m29.212 61.103l-2.702 2.726c1.671-1.671 3.757-1.671 5.38-0.048l-2.678-2.678zM265.005 483.026c-10.055-10.054-27.009-10.568-37.223-0.354-10.055 10.055-10.57 27.01-0.355 37.224l48.19 48.19c10.128 10.128 27.096 10.128 37.224 0l79.419-80.128c10.008-10.008 10.522-26.962 0.307-37.176-10.055-10.055-27.009-10.57-37.223-0.355l-0.355 0.355-60.963 61.265-29.02-29.02z m29.212 61.103l-2.702 2.726c1.671-1.671 3.757-1.671 5.38-0.048l-2.678-2.678z" p-id="6013" fill="#bfbfbf"></path></svg>