<?xml version="1.0" standalone="no"?><!DOCTYPE svg PUBLIC "-//W3C//DTD SVG 1.1//EN" "http://www.w3.org/Graphics/SVG/1.1/DTD/svg11.dtd"><svg t="1603090325578" class="icon" viewBox="0 0 1038 1024" version="1.1" xmlns="http://www.w3.org/2000/svg" p-id="6384" xmlns:xlink="http://www.w3.org/1999/xlink" width="202.734375" height="200"><defs><style type="text/css"></style></defs><path d="M233.642899 269.47892v-53.89081h311.494851v53.89081z m0 161.647561V377.26054h311.494851v53.89081z m0 161.647562v-53.828638h311.494851v53.89081z m0 161.647562v-53.754032h311.494851v53.890811z m752.842432 215.67515V350.315135a27.529823 27.529823 0 0 0-7.597435-19.061978 25.52788 25.52788 0 0 0-18.36565-7.883427H804.7313a25.515446 25.515446 0 0 0-18.353216 7.883427 27.467651 27.467651 0 0 0-7.547697 19.061978v619.78162h-51.975909V53.977851c0-29.755586-23.177773-53.89081-51.839129-53.977851H103.7653a50.981154 50.981154 0 0 0-36.693996 15.841461 54.98504 54.98504 0 0 0-15.157568 38.13639v916.118904H0v53.865942h1038.374199v-53.865942z m0 0" fill="#1296db" p-id="6385"></path></svg>