<?xml version="1.0" standalone="no"?><!DOCTYPE svg PUBLIC "-//W3C//DTD SVG 1.1//EN" "http://www.w3.org/Graphics/SVG/1.1/DTD/svg11.dtd"><svg t="1603182387497" class="icon" viewBox="0 0 1024 1024" version="1.1" xmlns="http://www.w3.org/2000/svg" p-id="4894" xmlns:xlink="http://www.w3.org/1999/xlink" width="200" height="200"><defs><style type="text/css"></style></defs><path d="M215.744 720l339.904 0C571.968 720 576 712.896 576 704s-4.032-16-20.352-16L215.744 688C199.552 688 192 695.104 192 704S199.552 720 215.744 720z" p-id="4895"></path><path d="M211.776 528l467.904 0c16.32 0 20.352-7.104 20.352-16s-4.032-16-20.352-16L211.776 496C195.52 496 188.032 503.104 188.032 512S195.52 528 211.776 528z" p-id="4896"></path><path d="M215.744 336l531.904 0C763.968 336 768 328.896 768 320s-4.032-16-20.352-16L215.744 304C199.552 304 192 311.104 192 320S199.552 336 215.744 336z" p-id="4897"></path><path d="M830.656 875.712c0 33.92-14.464 51.008-46.848 51.008l-609.92 0c-32.32 0-45.888-14.976-45.888-48.96L128 177.344c0-33.984 19.584-49.92 51.904-49.92l199.744 0C380.928 127.552 382.08 128.128 383.424 128.128l191.68 0c1.408 0 2.624-0.64 3.904-0.768l204.736 0c32.448 0 46.848 18.048 46.848 52.032l0 207.296 31.936 0L862.528 160.704c0-36.864-28.544-66.624-63.872-66.624l-192 0C605.568 77.312 592.064 64 575.104 64L383.424 64C366.528 64 352.96 77.312 351.936 94.08l-192 0C124.608 94.08 96 123.84 96 160.704L96 893.44C96 930.112 124.608 960 159.872 960l638.784 0c35.328 0 63.872-29.888 63.872-66.56l0-208.064-31.936 0L830.592 875.712z" p-id="4898"></path><path d="M684.671053 632.186086l181.183334-191.735654 46.468685 43.911245-181.183334 191.735654-46.468685-43.911245Z" p-id="4899"></path><path d="M664.832 698.304 721.728 684.544 675.264 640.64Z" p-id="4900"></path></svg>