<?xml version="1.0" standalone="no"?><!DOCTYPE svg PUBLIC "-//W3C//DTD SVG 1.1//EN" "http://www.w3.org/Graphics/SVG/1.1/DTD/svg11.dtd"><svg t="1603182307825" class="icon" viewBox="0 0 1024 1024" version="1.1" xmlns="http://www.w3.org/2000/svg" p-id="4191" xmlns:xlink="http://www.w3.org/1999/xlink" width="200" height="200"><defs><style type="text/css"></style></defs><path d="M739.84 512c94.208 0 171.008 76.8 171.008 171.008s-76.8 171.008-171.008 171.008-171.008-76.8-171.008-171.008 76.8-171.008 171.008-171.008m0-40.448c-116.736 0-211.456 94.72-211.456 211.456s94.72 211.456 211.456 211.456 211.456-94.72 211.456-211.456-94.208-211.456-211.456-211.456zM269.824 632.832c-17.408 0-31.232 12.8-31.232 30.208s13.824 30.208 31.232 30.208h194.56c-0.512 0-1.024-11.264-1.024-17.408 0-14.848 1.536-22.528 4.096-43.008H269.824zM646.656 310.784H269.824c-17.408 0-31.232 12.8-31.232 30.208 0 17.408 13.824 30.208 31.232 30.208h376.832c17.408 0 31.232-12.8 31.232-30.208 0.512-17.408-13.824-30.208-31.232-30.208zM559.104 471.552H269.824c-17.408 0-31.232 12.8-31.232 30.208 0 17.408 13.824 30.208 31.232 30.208h233.984c15.36-19.968 33.792-39.936 55.296-60.416z" fill="" p-id="4192"></path><path d="M516.096 834.048H173.568c-19.968 0-40.448-20.48-40.448-40.448V229.888c0-19.968 20.48-40.448 40.448-40.448h543.744c19.968 0 40.448 20.48 40.448 40.448v181.248c20.48 3.584 60.416 11.776 60.416 19.968V209.92c0-52.224-40.96-80.384-80.384-80.384H153.6c-39.424 0-80.384 40.448-80.384 80.384v604.16c0 39.936 40.96 80.384 80.384 80.384h422.912c-23.04-19.968-44.032-19.968-60.416-60.416z" fill="" p-id="4193"></path><path d="M812.032 706.048h-46.592v46.592c0 12.8-10.24 23.04-23.04 23.04s-23.04-10.24-23.04-23.04v-46.592h-46.592c-12.8 0-23.04-10.24-23.04-23.04s10.24-23.04 23.04-23.04h46.592v-46.592c0-12.8 10.24-23.04 23.04-23.04s23.04 10.24 23.04 23.04v46.592h46.592c12.8 0 23.04 10.24 23.04 23.04s-10.24 23.04-23.04 23.04z" fill="" p-id="4194"></path></svg>